<svg xmlns="http://www.w3.org/2000/svg" viewBox="0 0 320 220" fill="none">
  <defs>
    <radialGradient id="bg" cx="0" cy="0" r="1" gradientUnits="userSpaceOnUse" gradientTransform="translate(160 106) rotate(90) scale(84 92)">
      <stop stop-color="#dcecff"/>
      <stop offset="1" stop-color="#eef6ff" stop-opacity="0"/>
    </radialGradient>
    <linearGradient id="ring" x1="68" y1="170" x2="254" y2="170" gradientUnits="userSpaceOnUse">
      <stop stop-color="#336eff"/>
      <stop offset="1" stop-color="#143dc6"/>
    </linearGradient>
    <linearGradient id="body" x1="74" y1="94" x2="254" y2="152" gradientUnits="userSpaceOnUse">
      <stop stop-color="#ffffff"/>
      <stop offset=".55" stop-color="#f3f6fa"/>
      <stop offset="1" stop-color="#dbe4ed"/>
    </linearGradient>
  </defs>
  <ellipse cx="160" cy="106" rx="86" ry="68" fill="url(#bg)"/>
  <ellipse cx="160" cy="188" rx="72" ry="11" fill="#d9e5f3"/>
  <ellipse cx="160" cy="168" rx="94" ry="19" fill="url(#ring)"/>
  <path d="M79 151c7-18 24-26 50-26h70c27 0 46 8 54 26H79Z" fill="#eef3fa"/>
  <path d="M80 94h133c16 0 29 6 40 18l17 17h16c13 0 23 8 27 21l6 18H52l9-46c3-18 8-28 19-28Z" fill="url(#body)"/>
  <path d="M108 105h124c17 0 30 4 40 13l18 16H96l12-18Z" fill="#626c79"/>
  <rect x="61" y="104" width="38" height="31" rx="6" fill="#dfe9f4"/>
  <rect x="123" y="79" width="86" height="10" rx="4" fill="#4fd6f1"/>
  <path d="M80 143h58c10 0 18 6 22 16H71z" fill="#2d64ea"/>
  <circle cx="114" cy="165" r="21" fill="#2c3541"/>
  <circle cx="114" cy="165" r="11" fill="#c2cdd8"/>
  <circle cx="238" cy="165" r="21" fill="#2c3541"/>
  <circle cx="238" cy="165" r="11" fill="#c2cdd8"/>
</svg>
