<svg xmlns="http://www.w3.org/2000/svg" width="400" height="200" viewBox="0 0 400 200">
  <defs>
    <linearGradient id="cardGrad" x1="0%" y1="0%" x2="100%" y2="100%">
      <stop offset="0%" style="stop-color:#1e3a5f"/>
      <stop offset="100%" style="stop-color:#0a1628"/>
    </linearGradient>
    <linearGradient id="goldGrad" x1="0%" y1="0%" x2="100%" y2="100%">
      <stop offset="0%" style="stop-color:#f5d76e"/>
      <stop offset="50%" style="stop-color:#d4af37"/>
      <stop offset="100%" style="stop-color:#aa8c2c"/>
    </linearGradient>
    <linearGradient id="chipGrad" x1="0%" y1="0%" x2="100%" y2="100%">
      <stop offset="0%" style="stop-color:#f0d078"/>
      <stop offset="50%" style="stop-color:#c9a227"/>
      <stop offset="100%" style="stop-color:#f0d078"/>
    </linearGradient>
  </defs>
  <rect width="400" height="200" fill="url(#cardGrad)"/>
  <rect x="50" y="30" width="300" height="140" rx="12" fill="url(#goldGrad)"/>
  <rect x="70" y="55" width="45" height="35" rx="4" fill="url(#chipGrad)" stroke="#997a1f" stroke-width="0.5"/>
  <g stroke="#997a1f" stroke-width="0.3" fill="none" opacity="0.5">
    <line x1="75" y1="55" x2="75" y2="90"/><line x1="92" y1="55" x2="92" y2="90"/>
    <line x1="70" y1="65" x2="110" y2="65"/><line x1="70" y1="75" x2="110" y2="75"/><line x1="70" y1="85" x2="110" y2="85"/>
  </g>
  <g fill="none" stroke="#1a1f71" stroke-width="2" opacity="0.8">
    <circle cx="310" cy="70" r="20"/>
    <circle cx="340" cy="70" r="20"/>
  </g>
  <text x="70" y="45" font-family="Arial" font-size="12" fill="#3d2e05" font-weight="bold">SOMONIBANK</text>
  <text x="70" y="110" font-family="Courier New" font-size="14" fill="#3d2e05" letter-spacing="2">**** **** **** 4587</text>
  <text x="70" y="145" font-family="Arial" font-size="9" fill="#3d2e05" opacity="0.8">IVAN IVANOV</text>
  <text x="330" y="145" font-family="Arial" font-size="9" fill="#3d2e05" opacity="0.8">12/28</text>
  <text x="315" y="100" font-family="Arial" font-size="18" fill="#1a1f71" font-style="italic" font-weight="bold">VISA</text>
</svg>